 <svg  version="1.0" xmlns="http://www.w3.org/2000/svg"  width="512.000000pt" height="512.000000pt" viewBox="0 0 512.000000 512.000000"  preserveAspectRatio="xMidYMid meet">  <g transform="translate(0.000000,512.000000) scale(0.050000,-0.050000)" fill="#ff0000" stroke="none"> <path d="M4186 10220 c-3443 -283 -5321 -4105 -3420 -6959 1855 -2786 5960 -2643 7634 266 841 1464 757 3464 -201 4753 -29 39 -106 142 -171 230 -147 199 -551 604 -749 751 -82 61 -185 138 -229 170 -727 539 -1916 866 -2864 789z m651 -2060 c370 -168 406 -302 365 -1356 -62 -1590 -59 -1574 -238 -1767 -326 -352 -927 -224 -1070 227 -37 120 -79 868 -107 1939 l-13 514 56 114 c70 144 183 258 317 321 141 66 552 70 690 8z m-65 -3670 c396 -194 487 -729 178 -1039 -265 -264 -750 -227 -964 75 -383 540 197 1251 786 964z"/> </g> </svg> 